<mxfile host="app.diagrams.net" agent="Mozilla/5.0 (Windows NT 10.0; Win64; x64) AppleWebKit/537.36 (KHTML, like Gecko) Chrome/130.0.0.0 Safari/537.36" version="24.8.4">
  <diagram name="Page-1" id="c_gmi2Ewd1E3Fo6QpNp9">
    <mxGraphModel dx="656" dy="352" grid="1" gridSize="10" guides="1" tooltips="1" connect="1" arrows="1" fold="1" page="1" pageScale="1" pageWidth="850" pageHeight="1100" math="0" shadow="0">
      <root>
        <mxCell id="0" />
        <mxCell id="1" parent="0" />
        <mxCell id="RVr9wq3zV6itTHB1rqxp-2" value="&lt;div style=&quot;&quot;&gt;&lt;b style=&quot;background-color: initial;&quot;&gt;&lt;font style=&quot;font-size: 21px;&quot;&gt;Individual News&lt;/font&gt;&lt;/b&gt;&lt;/div&gt;&lt;div style=&quot;&quot;&gt;&lt;strong style=&quot;background-color: initial;&quot;&gt;Title&lt;/strong&gt;&lt;span style=&quot;background-color: initial;&quot;&gt;: Text&lt;/span&gt;&lt;br&gt;&lt;strong style=&quot;background-color: initial;&quot;&gt;Slug&lt;/strong&gt;&lt;span style=&quot;background-color: initial;&quot;&gt;: Unique text&lt;/span&gt;&lt;br&gt;&lt;strong style=&quot;background-color: initial;&quot;&gt;Content&lt;/strong&gt;&lt;span style=&quot;background-color: initial;&quot;&gt;: ck editor&lt;/span&gt;&lt;/div&gt;&lt;strong style=&quot;background-color: initial;&quot;&gt;Excerpt&lt;/strong&gt;&lt;span style=&quot;background-color: initial;&quot;&gt;: long Text&lt;/span&gt;&lt;br&gt;&lt;strong style=&quot;background-color: initial;&quot;&gt;Category&lt;/strong&gt;&lt;span style=&quot;background-color: initial;&quot;&gt;: Multiple relation&lt;/span&gt;&lt;div&gt;&lt;span style=&quot;background-color: initial;&quot;&gt;&amp;nbsp;(National, International, Regional, Business, Sports, Entertainment)&lt;/span&gt;&lt;br&gt;&lt;strong style=&quot;background-color: initial;&quot;&gt;Tags&lt;/strong&gt;&lt;span style=&quot;background-color: initial;&quot;&gt;: Relation (optional)&lt;/span&gt;&lt;br&gt;&lt;strong style=&quot;background-color: initial;&quot;&gt;Author&lt;/strong&gt;&lt;span style=&quot;background-color: initial;&quot;&gt;: Single relation (optional)&lt;/span&gt;&lt;br&gt;&lt;strong style=&quot;background-color: initial;&quot;&gt;Image&lt;/strong&gt;&lt;span style=&quot;background-color: initial;&quot;&gt;: Media upload (multiple)&lt;/span&gt;&lt;br&gt;&lt;b&gt;views: &lt;/b&gt;number&amp;nbsp;&lt;span style=&quot;background-color: initial;&quot;&gt;(optional)&lt;/span&gt;&lt;/div&gt;&lt;div&gt;&lt;span style=&quot;background-color: initial;&quot;&gt;&lt;b&gt;isTrending: &lt;/b&gt;Boolean&amp;nbsp;&lt;/span&gt;&lt;span style=&quot;background-color: initial;&quot;&gt;(optional)&lt;/span&gt;&lt;/div&gt;&lt;div&gt;&lt;span style=&quot;background-color: initial;&quot;&gt;&lt;b&gt;trendingSequence:&lt;/b&gt; number&amp;nbsp;&lt;/span&gt;&lt;span style=&quot;background-color: initial;&quot;&gt;(optional)&lt;/span&gt;&lt;/div&gt;&lt;div&gt;&lt;span style=&quot;background-color: initial;&quot;&gt;isPopular: Boolean&lt;/span&gt;&lt;/div&gt;&lt;div&gt;&lt;span style=&quot;background-color: initial;&quot;&gt;popularSequnece:&amp;nbsp;&lt;/span&gt;&lt;/div&gt;&lt;div&gt;latest : creeatedAt&lt;/div&gt;&lt;div&gt;&lt;span style=&quot;background-color: initial;&quot;&gt;&lt;br&gt;&lt;/span&gt;&lt;/div&gt;" style="rounded=0;whiteSpace=wrap;html=1;" vertex="1" parent="1">
          <mxGeometry x="340" y="180" width="230" height="290" as="geometry" />
        </mxCell>
        <mxCell id="RVr9wq3zV6itTHB1rqxp-3" value="&lt;div&gt;&lt;span style=&quot;background-color: initial;&quot;&gt;&lt;b style=&quot;font-size: 17px;&quot;&gt;AdBanner&lt;/b&gt;&lt;/span&gt;&lt;/div&gt;&lt;div&gt;image&lt;/div&gt;&lt;div&gt;imagesizeType&lt;/div&gt;&lt;div&gt;&lt;br&gt;&lt;/div&gt;" style="rounded=0;whiteSpace=wrap;html=1;" vertex="1" parent="1">
          <mxGeometry x="640" y="280" width="120" height="60" as="geometry" />
        </mxCell>
      </root>
    </mxGraphModel>
  </diagram>
</mxfile>
